<svg xmlns="http://www.w3.org/2000/svg" xmlns:xlink="http://www.w3.org/1999/xlink" width="500" zoomAndPan="magnify" viewBox="0 0 375 374.999991" height="500" preserveAspectRatio="xMidYMid meet" version="1.0"><defs><g/><clipPath id="87e685ee09"><path d="M 20 260 L 166.777344 260 L 166.777344 265 L 20 265 Z M 20 260 " clip-rule="nonzero"/></clipPath><clipPath id="45f9dd1fc3"><path d="M 0 256.441406 L 166.777344 256.441406 L 166.777344 267.234375 L 0 267.234375 Z M 0 256.441406 " clip-rule="nonzero"/></clipPath><clipPath id="909a7ed077"><path d="M 197.523438 260 L 345 260 L 345 265 L 197.523438 265 Z M 197.523438 260 " clip-rule="nonzero"/></clipPath><clipPath id="2b99fccf9d"><path d="M 197.523438 256.441406 L 366.539062 256.441406 L 366.539062 267.234375 L 197.523438 267.234375 Z M 197.523438 256.441406 " clip-rule="nonzero"/></clipPath><clipPath id="42c77064dc"><path d="M 23.164062 122 L 319 122 L 319 207 L 23.164062 207 Z M 23.164062 122 " clip-rule="nonzero"/></clipPath><clipPath id="f5b3ecbabd"><path d="M 76 175 L 366.195312 175 L 366.195312 214 L 76 214 Z M 76 175 " clip-rule="nonzero"/></clipPath></defs><g clip-path="url(#87e685ee09)"><path fill="#ff3131" d="M 20.242188 260.5 L 346.847656 260.5 L 346.847656 264.109375 Z M 20.242188 260.5 " fill-opacity="1" fill-rule="nonzero"/></g><g clip-path="url(#45f9dd1fc3)"><path fill="#ff3131" d="M 371.757812 244.554688 L 349.105469 244.554688 L 345.613281 251.457031 L -2.21875 251.457031 L 343.382812 251.457031 L 347.277344 254.332031 L 350.753906 248.398438 L 365.597656 248.398438 L 353.214844 270.476562 L 43.683594 270.476562 L 354.878906 273.335938 L 371.757812 244.554688 " fill-opacity="1" fill-rule="nonzero"/></g><g clip-path="url(#909a7ed077)"><path fill="#ff3131" d="M 344.078125 260.5 L 17.46875 260.5 L 17.46875 264.109375 Z M 344.078125 260.5 " fill-opacity="1" fill-rule="nonzero"/></g><g clip-path="url(#2b99fccf9d)"><path fill="#ffffff" d="M -7.441406 244.554688 L 15.214844 244.554688 L 18.707031 251.457031 L 366.539062 251.457031 L 20.933594 251.457031 L 17.042969 254.332031 L 13.5625 248.398438 L -1.277344 248.398438 L 11.105469 270.476562 L 320.632812 270.476562 L 9.441406 273.335938 L -7.441406 244.554688 " fill-opacity="1" fill-rule="nonzero"/></g><g fill="#ffffff" fill-opacity="1"><g transform="translate(76.191419, 279.451887)"><g><path d="M 4.109375 -3.09375 L 7.078125 -3.09375 L 5.53125 -6.90625 Z M 7.765625 -8.40625 L 7.765625 -8.21875 C 7.640625 -8.207031 7.5625 -8.179688 7.53125 -8.140625 C 7.5 -8.109375 7.484375 -8.078125 7.484375 -8.046875 C 7.484375 -8.003906 7.507812 -7.910156 7.5625 -7.765625 C 7.613281 -7.617188 7.734375 -7.3125 7.921875 -6.84375 L 10.4375 -0.671875 C 10.507812 -0.503906 10.570312 -0.378906 10.625 -0.296875 C 10.675781 -0.222656 10.765625 -0.1875 10.890625 -0.1875 L 10.890625 0 L 7.734375 0 L 7.734375 -0.1875 C 7.847656 -0.195312 7.925781 -0.21875 7.96875 -0.25 C 8.019531 -0.289062 8.046875 -0.335938 8.046875 -0.390625 C 8.046875 -0.398438 7.984375 -0.554688 7.859375 -0.859375 L 7.5 -1.828125 L 3.703125 -1.828125 L 3.296875 -0.671875 C 3.234375 -0.492188 3.203125 -0.390625 3.203125 -0.359375 C 3.203125 -0.304688 3.21875 -0.265625 3.25 -0.234375 C 3.289062 -0.203125 3.367188 -0.1875 3.484375 -0.1875 L 3.484375 0 L 0.65625 0 L 0.65625 -0.1875 C 0.726562 -0.195312 0.785156 -0.210938 0.828125 -0.234375 C 0.867188 -0.253906 0.90625 -0.285156 0.9375 -0.328125 C 0.976562 -0.378906 1.015625 -0.441406 1.046875 -0.515625 C 1.085938 -0.597656 1.132812 -0.707031 1.1875 -0.84375 L 3.578125 -7.125 C 3.660156 -7.34375 3.738281 -7.550781 3.8125 -7.75 C 3.882812 -7.945312 3.921875 -8.054688 3.921875 -8.078125 C 3.921875 -8.097656 3.898438 -8.117188 3.859375 -8.140625 C 3.816406 -8.171875 3.726562 -8.195312 3.59375 -8.21875 L 3.59375 -8.40625 Z M 7.765625 -8.40625 "/></g></g></g><g fill="#ffffff" fill-opacity="1"><g transform="translate(100.526736, 279.451887)"><g><path d="M 4.65625 -8.40625 L 4.65625 -8.21875 C 4.445312 -8.195312 4.316406 -8.160156 4.265625 -8.109375 C 4.222656 -8.066406 4.203125 -8.003906 4.203125 -7.921875 L 4.203125 -3.640625 C 4.203125 -3.078125 4.359375 -2.648438 4.671875 -2.359375 C 4.992188 -2.066406 5.507812 -1.921875 6.21875 -1.921875 C 6.976562 -1.921875 7.503906 -2.078125 7.796875 -2.390625 C 8.085938 -2.710938 8.234375 -3.128906 8.234375 -3.640625 L 8.234375 -7.921875 C 8.234375 -8.015625 8.207031 -8.082031 8.15625 -8.125 C 8.101562 -8.164062 7.976562 -8.195312 7.78125 -8.21875 L 7.78125 -8.40625 L 11.078125 -8.40625 L 11.078125 -8.21875 C 10.890625 -8.195312 10.765625 -8.164062 10.703125 -8.125 C 10.648438 -8.082031 10.625 -8.015625 10.625 -7.921875 L 10.625 -3.609375 C 10.625 -2.421875 10.257812 -1.503906 9.53125 -0.859375 C 8.8125 -0.222656 7.707031 0.09375 6.21875 0.09375 C 5.445312 0.09375 4.785156 0.0078125 4.234375 -0.15625 C 3.679688 -0.332031 3.222656 -0.578125 2.859375 -0.890625 C 2.503906 -1.210938 2.238281 -1.601562 2.0625 -2.0625 C 1.894531 -2.519531 1.8125 -3.035156 1.8125 -3.609375 L 1.8125 -7.921875 C 1.8125 -8.015625 1.78125 -8.082031 1.71875 -8.125 C 1.664062 -8.164062 1.546875 -8.195312 1.359375 -8.21875 L 1.359375 -8.40625 Z M 4.65625 -8.40625 "/></g></g></g><g fill="#ffffff" fill-opacity="1"><g transform="translate(125.757268, 279.451887)"><g><path d="M 0.453125 -8.859375 L 0.640625 -8.859375 C 0.660156 -8.648438 0.691406 -8.519531 0.734375 -8.46875 C 0.785156 -8.425781 0.84375 -8.40625 0.90625 -8.40625 L 8.84375 -8.40625 C 8.90625 -8.40625 8.957031 -8.425781 9 -8.46875 C 9.050781 -8.519531 9.085938 -8.648438 9.109375 -8.859375 L 9.296875 -8.859375 L 9.296875 -6.015625 L 9.109375 -6.015625 C 9.085938 -6.210938 9.050781 -6.332031 9 -6.375 C 8.957031 -6.425781 8.894531 -6.453125 8.8125 -6.453125 L 6.078125 -6.453125 L 6.078125 -0.5 C 6.078125 -0.425781 6.097656 -0.359375 6.140625 -0.296875 C 6.179688 -0.242188 6.304688 -0.207031 6.515625 -0.1875 L 6.515625 0 L 3.234375 0 L 3.234375 -0.1875 C 3.429688 -0.207031 3.550781 -0.242188 3.59375 -0.296875 C 3.644531 -0.347656 3.671875 -0.414062 3.671875 -0.5 L 3.671875 -6.453125 L 0.921875 -6.453125 C 0.835938 -6.453125 0.773438 -6.425781 0.734375 -6.375 C 0.691406 -6.332031 0.660156 -6.210938 0.640625 -6.015625 L 0.453125 -6.015625 Z M 0.453125 -8.859375 "/></g></g></g><g fill="#ffffff" fill-opacity="1"><g transform="translate(148.318165, 279.451887)"><g><path d="M 3.15625 -4.203125 C 3.15625 -3.847656 3.21875 -3.523438 3.34375 -3.234375 C 3.476562 -2.953125 3.660156 -2.707031 3.890625 -2.5 C 4.128906 -2.289062 4.40625 -2.128906 4.71875 -2.015625 C 5.039062 -1.910156 5.390625 -1.859375 5.765625 -1.859375 C 6.128906 -1.859375 6.46875 -1.910156 6.78125 -2.015625 C 7.101562 -2.128906 7.382812 -2.285156 7.625 -2.484375 C 7.863281 -2.691406 8.050781 -2.9375 8.1875 -3.21875 C 8.320312 -3.507812 8.390625 -3.835938 8.390625 -4.203125 C 8.390625 -4.554688 8.320312 -4.878906 8.1875 -5.171875 C 8.050781 -5.460938 7.863281 -5.707031 7.625 -5.90625 C 7.394531 -6.113281 7.117188 -6.269531 6.796875 -6.375 C 6.472656 -6.488281 6.125 -6.546875 5.75 -6.546875 C 5.382812 -6.546875 5.039062 -6.488281 4.71875 -6.375 C 4.40625 -6.269531 4.128906 -6.113281 3.890625 -5.90625 C 3.660156 -5.707031 3.476562 -5.460938 3.34375 -5.171875 C 3.21875 -4.890625 3.15625 -4.566406 3.15625 -4.203125 Z M 5.765625 -8.5 C 6.472656 -8.5 7.128906 -8.398438 7.734375 -8.203125 C 8.335938 -8.015625 8.863281 -7.738281 9.3125 -7.375 C 9.757812 -7.007812 10.109375 -6.5625 10.359375 -6.03125 C 10.617188 -5.5 10.75 -4.890625 10.75 -4.203125 C 10.75 -3.515625 10.617188 -2.898438 10.359375 -2.359375 C 10.097656 -1.828125 9.742188 -1.378906 9.296875 -1.015625 C 8.847656 -0.660156 8.320312 -0.382812 7.71875 -0.1875 C 7.113281 0 6.460938 0.09375 5.765625 0.09375 C 5.046875 0.09375 4.378906 -0.00390625 3.765625 -0.203125 C 3.148438 -0.410156 2.617188 -0.695312 2.171875 -1.0625 C 1.734375 -1.4375 1.390625 -1.890625 1.140625 -2.421875 C 0.898438 -2.953125 0.78125 -3.546875 0.78125 -4.203125 C 0.78125 -4.890625 0.90625 -5.5 1.15625 -6.03125 C 1.414062 -6.5625 1.769531 -7.007812 2.21875 -7.375 C 2.664062 -7.738281 3.191406 -8.015625 3.796875 -8.203125 C 4.410156 -8.398438 5.066406 -8.5 5.765625 -8.5 Z M 5.765625 -8.5 "/></g></g></g><g fill="#ffffff" fill-opacity="1"><g transform="translate(172.653483, 279.451887)"><g><path d="M 5.40625 -8.40625 L 5.40625 -8.21875 C 5.238281 -8.207031 5.128906 -8.175781 5.078125 -8.125 C 5.035156 -8.070312 5.015625 -8.019531 5.015625 -7.96875 C 5.015625 -7.90625 5.070312 -7.742188 5.1875 -7.484375 C 5.3125 -7.222656 5.5 -6.804688 5.75 -6.234375 C 5.9375 -5.828125 6.097656 -5.460938 6.234375 -5.140625 C 6.378906 -4.816406 6.472656 -4.597656 6.515625 -4.484375 C 6.671875 -4.816406 6.820312 -5.144531 6.96875 -5.46875 C 7.125 -5.789062 7.304688 -6.148438 7.515625 -6.546875 C 7.710938 -6.953125 7.863281 -7.269531 7.96875 -7.5 C 8.070312 -7.726562 8.125 -7.875 8.125 -7.9375 C 8.125 -8.101562 7.992188 -8.195312 7.734375 -8.21875 L 7.734375 -8.40625 L 12.0625 -8.40625 L 12.0625 -8.21875 C 11.863281 -8.195312 11.738281 -8.160156 11.6875 -8.109375 C 11.644531 -8.066406 11.625 -8.003906 11.625 -7.921875 L 11.625 -0.484375 C 11.625 -0.410156 11.644531 -0.347656 11.6875 -0.296875 C 11.738281 -0.242188 11.863281 -0.207031 12.0625 -0.1875 L 12.0625 0 L 8.875 0 L 8.875 -0.1875 C 9.070312 -0.207031 9.191406 -0.242188 9.234375 -0.296875 C 9.285156 -0.347656 9.3125 -0.410156 9.3125 -0.484375 L 9.3125 -6.390625 L 9.28125 -6.390625 L 6.4375 -0.1875 L 3.625 -6.453125 L 3.59375 -6.453125 L 3.59375 -0.484375 C 3.59375 -0.410156 3.613281 -0.347656 3.65625 -0.296875 C 3.707031 -0.242188 3.835938 -0.207031 4.046875 -0.1875 L 4.046875 0 L 1.234375 0 L 1.234375 -0.1875 C 1.429688 -0.207031 1.550781 -0.242188 1.59375 -0.296875 C 1.644531 -0.347656 1.671875 -0.410156 1.671875 -0.484375 L 1.671875 -7.921875 C 1.671875 -8.003906 1.644531 -8.066406 1.59375 -8.109375 C 1.550781 -8.160156 1.429688 -8.195312 1.234375 -8.21875 L 1.234375 -8.40625 Z M 5.40625 -8.40625 "/></g></g></g><g fill="#ffffff" fill-opacity="1"><g transform="translate(198.76322, 279.451887)"><g><path d="M 3.15625 -4.203125 C 3.15625 -3.847656 3.21875 -3.523438 3.34375 -3.234375 C 3.476562 -2.953125 3.660156 -2.707031 3.890625 -2.5 C 4.128906 -2.289062 4.40625 -2.128906 4.71875 -2.015625 C 5.039062 -1.910156 5.390625 -1.859375 5.765625 -1.859375 C 6.128906 -1.859375 6.46875 -1.910156 6.78125 -2.015625 C 7.101562 -2.128906 7.382812 -2.285156 7.625 -2.484375 C 7.863281 -2.691406 8.050781 -2.9375 8.1875 -3.21875 C 8.320312 -3.507812 8.390625 -3.835938 8.390625 -4.203125 C 8.390625 -4.554688 8.320312 -4.878906 8.1875 -5.171875 C 8.050781 -5.460938 7.863281 -5.707031 7.625 -5.90625 C 7.394531 -6.113281 7.117188 -6.269531 6.796875 -6.375 C 6.472656 -6.488281 6.125 -6.546875 5.75 -6.546875 C 5.382812 -6.546875 5.039062 -6.488281 4.71875 -6.375 C 4.40625 -6.269531 4.128906 -6.113281 3.890625 -5.90625 C 3.660156 -5.707031 3.476562 -5.460938 3.34375 -5.171875 C 3.21875 -4.890625 3.15625 -4.566406 3.15625 -4.203125 Z M 5.765625 -8.5 C 6.472656 -8.5 7.128906 -8.398438 7.734375 -8.203125 C 8.335938 -8.015625 8.863281 -7.738281 9.3125 -7.375 C 9.757812 -7.007812 10.109375 -6.5625 10.359375 -6.03125 C 10.617188 -5.5 10.75 -4.890625 10.75 -4.203125 C 10.75 -3.515625 10.617188 -2.898438 10.359375 -2.359375 C 10.097656 -1.828125 9.742188 -1.378906 9.296875 -1.015625 C 8.847656 -0.660156 8.320312 -0.382812 7.71875 -0.1875 C 7.113281 0 6.460938 0.09375 5.765625 0.09375 C 5.046875 0.09375 4.378906 -0.00390625 3.765625 -0.203125 C 3.148438 -0.410156 2.617188 -0.695312 2.171875 -1.0625 C 1.734375 -1.4375 1.390625 -1.890625 1.140625 -2.421875 C 0.898438 -2.953125 0.78125 -3.546875 0.78125 -4.203125 C 0.78125 -4.890625 0.90625 -5.5 1.15625 -6.03125 C 1.414062 -6.5625 1.769531 -7.007812 2.21875 -7.375 C 2.664062 -7.738281 3.191406 -8.015625 3.796875 -8.203125 C 4.410156 -8.398438 5.066406 -8.5 5.765625 -8.5 Z M 5.765625 -8.5 "/></g></g></g><g fill="#ffffff" fill-opacity="1"><g transform="translate(223.098539, 279.451887)"><g><path d="M 0.453125 -8.859375 L 0.640625 -8.859375 C 0.660156 -8.648438 0.691406 -8.519531 0.734375 -8.46875 C 0.785156 -8.425781 0.84375 -8.40625 0.90625 -8.40625 L 8.84375 -8.40625 C 8.90625 -8.40625 8.957031 -8.425781 9 -8.46875 C 9.050781 -8.519531 9.085938 -8.648438 9.109375 -8.859375 L 9.296875 -8.859375 L 9.296875 -6.015625 L 9.109375 -6.015625 C 9.085938 -6.210938 9.050781 -6.332031 9 -6.375 C 8.957031 -6.425781 8.894531 -6.453125 8.8125 -6.453125 L 6.078125 -6.453125 L 6.078125 -0.5 C 6.078125 -0.425781 6.097656 -0.359375 6.140625 -0.296875 C 6.179688 -0.242188 6.304688 -0.207031 6.515625 -0.1875 L 6.515625 0 L 3.234375 0 L 3.234375 -0.1875 C 3.429688 -0.207031 3.550781 -0.242188 3.59375 -0.296875 C 3.644531 -0.347656 3.671875 -0.414062 3.671875 -0.5 L 3.671875 -6.453125 L 0.921875 -6.453125 C 0.835938 -6.453125 0.773438 -6.425781 0.734375 -6.375 C 0.691406 -6.332031 0.660156 -6.210938 0.640625 -6.015625 L 0.453125 -6.015625 Z M 0.453125 -8.859375 "/></g></g></g><g fill="#ffffff" fill-opacity="1"><g transform="translate(245.65943, 279.451887)"><g><path d="M 4.765625 -8.40625 L 4.765625 -8.21875 C 4.554688 -8.195312 4.425781 -8.160156 4.375 -8.109375 C 4.332031 -8.066406 4.3125 -8.003906 4.3125 -7.921875 L 4.3125 -0.484375 C 4.3125 -0.410156 4.332031 -0.347656 4.375 -0.296875 C 4.425781 -0.242188 4.554688 -0.207031 4.765625 -0.1875 L 4.765625 0 L 1.46875 0 L 1.46875 -0.1875 C 1.675781 -0.207031 1.800781 -0.242188 1.84375 -0.296875 C 1.894531 -0.347656 1.921875 -0.410156 1.921875 -0.484375 L 1.921875 -7.921875 C 1.921875 -8.003906 1.894531 -8.066406 1.84375 -8.109375 C 1.800781 -8.160156 1.675781 -8.195312 1.46875 -8.21875 L 1.46875 -8.40625 Z M 4.765625 -8.40625 "/></g></g></g><g fill="#ffffff" fill-opacity="1"><g transform="translate(264.671496, 279.451887)"><g><path d="M 3.671875 -8.40625 L 3.671875 -8.21875 C 3.535156 -8.207031 3.445312 -8.1875 3.40625 -8.15625 C 3.375 -8.125 3.359375 -8.082031 3.359375 -8.03125 C 3.359375 -7.988281 3.367188 -7.9375 3.390625 -7.875 C 3.421875 -7.8125 3.457031 -7.738281 3.5 -7.65625 L 5.59375 -3.171875 L 7.421875 -7.171875 C 7.640625 -7.660156 7.75 -7.953125 7.75 -8.046875 C 7.75 -8.097656 7.734375 -8.132812 7.703125 -8.15625 C 7.671875 -8.1875 7.609375 -8.207031 7.515625 -8.21875 L 7.515625 -8.40625 L 10.265625 -8.40625 L 10.265625 -8.21875 C 10.210938 -8.207031 10.171875 -8.1875 10.140625 -8.15625 C 10.117188 -8.132812 10.078125 -8.0625 10.015625 -7.9375 C 9.960938 -7.820312 9.882812 -7.644531 9.78125 -7.40625 C 9.6875 -7.175781 9.546875 -6.847656 9.359375 -6.421875 L 7.21875 -1.421875 C 7.1875 -1.335938 7.144531 -1.234375 7.09375 -1.109375 C 7.050781 -0.992188 7.007812 -0.882812 6.96875 -0.78125 C 6.925781 -0.675781 6.890625 -0.582031 6.859375 -0.5 C 6.828125 -0.414062 6.8125 -0.359375 6.8125 -0.328125 C 6.8125 -0.304688 6.828125 -0.28125 6.859375 -0.25 C 6.890625 -0.21875 6.945312 -0.203125 7.03125 -0.203125 L 7.03125 0 L 3.734375 0 L 3.734375 -0.1875 C 3.835938 -0.207031 3.90625 -0.226562 3.9375 -0.25 C 3.96875 -0.269531 3.984375 -0.296875 3.984375 -0.328125 C 3.984375 -0.398438 3.445312 -1.648438 2.375 -4.078125 C 1.851562 -5.253906 1.460938 -6.140625 1.203125 -6.734375 C 0.953125 -7.328125 0.789062 -7.707031 0.71875 -7.875 C 0.664062 -8.007812 0.617188 -8.097656 0.578125 -8.140625 C 0.535156 -8.179688 0.476562 -8.207031 0.40625 -8.21875 L 0.40625 -8.40625 Z M 3.671875 -8.40625 "/></g></g></g><g fill="#ffffff" fill-opacity="1"><g transform="translate(288.127613, 279.451887)"><g><path d="M 9.75 -6.078125 L 9.5625 -6.078125 C 9.539062 -6.273438 9.503906 -6.394531 9.453125 -6.4375 C 9.398438 -6.488281 9.332031 -6.515625 9.25 -6.515625 L 4.140625 -6.515625 L 4.140625 -5.1875 L 7.09375 -5.1875 C 7.25 -5.1875 7.363281 -5.21875 7.4375 -5.28125 C 7.507812 -5.34375 7.5625 -5.4375 7.59375 -5.5625 L 7.78125 -5.5625 L 7.78125 -3.0625 L 7.59375 -3.0625 C 7.570312 -3.1875 7.523438 -3.28125 7.453125 -3.34375 C 7.378906 -3.40625 7.265625 -3.4375 7.109375 -3.4375 L 4.140625 -3.4375 L 4.140625 -1.953125 L 9.265625 -1.953125 C 9.335938 -1.953125 9.398438 -1.972656 9.453125 -2.015625 C 9.503906 -2.066406 9.539062 -2.203125 9.5625 -2.421875 L 9.75 -2.421875 L 9.75 0.359375 L 9.5625 0.359375 C 9.539062 0.210938 9.507812 0.113281 9.46875 0.0625 C 9.425781 0.0195312 9.359375 0 9.265625 0 L 1.296875 0 L 1.296875 -0.1875 C 1.492188 -0.207031 1.617188 -0.242188 1.671875 -0.296875 C 1.722656 -0.347656 1.75 -0.410156 1.75 -0.484375 L 1.75 -7.921875 C 1.75 -8.003906 1.722656 -8.066406 1.671875 -8.109375 C 1.617188 -8.160156 1.492188 -8.195312 1.296875 -8.21875 L 1.296875 -8.40625 L 9.25 -8.40625 C 9.332031 -8.40625 9.398438 -8.425781 9.453125 -8.46875 C 9.503906 -8.519531 9.539062 -8.648438 9.5625 -8.859375 L 9.75 -8.859375 Z M 9.75 -6.078125 "/></g></g></g><path fill="#ff3131" d="M 200.066406 113.519531 C 148.746094 113.277344 104.605469 121.457031 98.234375 122.265625 C 88.050781 123.5625 84.703125 130.59375 84.703125 130.59375 L 64.972656 174.03125 C 68.460938 173.609375 72.957031 173.0625 78.289062 172.410156 C 79.488281 89.976562 286.640625 121.816406 293.582031 126.457031 C 264.230469 116.839844 230.855469 113.664062 200.066406 113.519531 Z M 200.066406 113.519531 " fill-opacity="1" fill-rule="nonzero"/><g clip-path="url(#42c77064dc)"><path fill="#ff3131" d="M 154.042969 125 C 154.042969 125 207.796875 115.734375 292.839844 131.039062 C 292.039062 130.234375 309.285156 144.734375 318.511719 174.539062 C 318.113281 174.136719 89.457031 154.402344 23.265625 206.359375 C 24.46875 204.746094 51.75 176.148438 133.582031 168.898438 C 215.417969 161.652344 312.898438 180.582031 301.265625 152.789062 C 289.628906 125 226.25 125 154.042969 125 Z M 154.042969 125 " fill-opacity="1" fill-rule="nonzero"/></g><path fill="#ff3131" d="M 66.1875 173.632812 L 59.269531 180.078125 C 59.269531 180.078125 54.65625 174.136719 38.910156 174.738281 C 23.164062 175.34375 31.789062 157.824219 41.117188 157.621094 C 50.445312 157.421875 59.472656 155.808594 58.769531 160.644531 C 58.066406 165.476562 57.964844 171.820312 56.5625 172.425781 C 55.15625 173.027344 56.660156 158.628906 45.027344 160.84375 C 33.394531 163.0625 35.703125 167.792969 38.609375 168.898438 C 41.519531 170.007812 45.730469 167.1875 49.242188 171.316406 C 52.75 175.445312 63.082031 177.660156 66.1875 173.632812 Z M 66.1875 173.632812 " fill-opacity="1" fill-rule="nonzero"/><path fill="#ff3131" d="M 317.796875 174.34375 L 324.714844 180.785156 C 324.714844 180.785156 329.328125 174.84375 345.074219 175.449219 C 360.820312 176.054688 352.195312 158.53125 342.867188 158.332031 C 333.539062 158.128906 324.515625 156.519531 325.21875 161.351562 C 325.917969 166.183594 326.019531 172.527344 327.425781 173.132812 C 328.828125 173.738281 327.324219 159.339844 338.957031 161.554688 C 350.589844 163.769531 348.285156 168.503906 345.375 169.609375 C 342.464844 170.714844 338.253906 167.898438 334.742188 172.027344 C 331.234375 176.152344 320.90625 178.367188 317.796875 174.34375 Z M 317.796875 174.34375 " fill-opacity="1" fill-rule="nonzero"/><g clip-path="url(#f5b3ecbabd)"><path fill="#ff3131" d="M 204.898438 175.34375 C 165.929688 175.476562 123.304688 179.765625 76.269531 194.074219 L 76.347656 194.058594 C 148.683594 176.664062 232.28125 177.027344 292.300781 181.386719 C 292.101562 181.394531 292.007812 181.394531 291.804688 181.402344 C 283.761719 181.816406 278.882812 183.007812 268.183594 183.964844 C 257.480469 184.925781 246.722656 186.148438 238.441406 187.648438 C 234.300781 188.398438 230.785156 189.210938 228.179688 190.105469 C 226.878906 190.550781 225.804688 191.019531 224.980469 191.527344 C 224.160156 192.03125 223.554688 192.578125 223.304688 193.285156 C 223.050781 194.019531 223.378906 194.800781 223.984375 195.367188 C 300.066406 242.273438 351.949219 153.316406 364.464844 213.652344 C 365.050781 213.609375 365.632812 213.574219 366.195312 213.558594 C 363.636719 195.453125 354.34375 190.992188 350.707031 184.898438 C 349.570312 183.003906 348.066406 182.113281 346.523438 181.972656 C 344.984375 181.832031 343.460938 182.390625 342.109375 183.132812 C 332.15625 190.625 320.03125 195.308594 308.433594 197.515625 C 296.359375 199.699219 282.703125 200.585938 269.945312 200.574219 C 208.589844 189.476562 280.808594 184.546875 311.597656 181.550781 C 279.175781 179.234375 243.863281 175.210938 204.898438 175.34375 Z M 204.898438 175.34375 " fill-opacity="1" fill-rule="nonzero"/></g><g fill="#ff3131" fill-opacity="1"><g transform="translate(16.940606, 255.211812)"><g><path d="M 31.953125 -1.734375 C 29.941406 -0.910156 27.816406 -0.320312 25.578125 0.03125 C 23.347656 0.394531 20.820312 0.578125 18 0.578125 C 15.5 0.578125 13.203125 0.328125 11.109375 -0.171875 C 9.023438 -0.679688 7.210938 -1.488281 5.671875 -2.59375 C 4.140625 -3.695312 2.941406 -5.125 2.078125 -6.875 C 1.222656 -8.625 0.796875 -10.75 0.796875 -13.25 C 0.796875 -15.832031 1.238281 -18.238281 2.125 -20.46875 C 3.007812 -22.707031 4.351562 -24.664062 6.15625 -26.34375 C 7.957031 -28.019531 10.25 -29.335938 13.03125 -30.296875 C 15.8125 -31.253906 19.117188 -31.734375 22.953125 -31.734375 C 26.078125 -31.734375 28.789062 -31.484375 31.09375 -30.984375 C 33.394531 -30.484375 35.289062 -29.34375 36.78125 -27.5625 L 34.765625 -18.359375 L 24.96875 -18.359375 C 25.019531 -19.171875 25.066406 -19.890625 25.109375 -20.515625 C 25.160156 -21.140625 25.1875 -21.832031 25.1875 -22.59375 C 25.1875 -24.132812 25.019531 -25.226562 24.6875 -25.875 C 24.351562 -26.519531 23.800781 -26.84375 23.03125 -26.84375 C 21.6875 -26.84375 20.507812 -26.179688 19.5 -24.859375 C 18.5 -23.546875 17.671875 -21.960938 17.015625 -20.109375 C 16.367188 -18.265625 15.890625 -16.320312 15.578125 -14.28125 C 15.265625 -12.25 15.109375 -10.507812 15.109375 -9.0625 C 15.109375 -8.539062 15.128906 -8.003906 15.171875 -7.453125 C 15.222656 -6.898438 15.332031 -6.382812 15.5 -5.90625 C 15.675781 -5.425781 15.90625 -5.039062 16.1875 -4.75 C 16.476562 -4.457031 16.890625 -4.3125 17.421875 -4.3125 C 17.898438 -4.3125 18.445312 -4.457031 19.0625 -4.75 C 19.6875 -5.039062 20.285156 -5.484375 20.859375 -6.078125 C 21.441406 -6.679688 21.992188 -7.460938 22.515625 -8.421875 C 23.046875 -9.378906 23.457031 -10.53125 23.75 -11.875 L 34.046875 -11.875 Z M 31.953125 -1.734375 "/></g></g></g><g fill="#ff3131" fill-opacity="1"><g transform="translate(52.634834, 255.211812)"><g><path d="M 5.1875 -28.28125 C 7.632812 -29.476562 10.140625 -30.351562 12.703125 -30.90625 C 15.265625 -31.457031 18.128906 -31.734375 21.296875 -31.734375 C 24.367188 -31.734375 26.910156 -31.492188 28.921875 -31.015625 C 30.941406 -30.535156 32.550781 -29.835938 33.75 -28.921875 C 34.945312 -28.015625 35.785156 -26.9375 36.265625 -25.6875 C 36.742188 -24.445312 36.984375 -23.035156 36.984375 -21.453125 C 36.984375 -20.535156 36.921875 -19.546875 36.796875 -18.484375 C 36.679688 -17.429688 36.554688 -16.546875 36.421875 -15.828125 L 33.03125 0 L 21.453125 0 L 20.15625 -4.609375 L 19.71875 -4.609375 C 18.1875 -2.929688 16.398438 -1.644531 14.359375 -0.75 C 12.316406 0.132812 10.289062 0.578125 8.28125 0.578125 C 7.125 0.578125 5.992188 0.40625 4.890625 0.0625 C 3.785156 -0.269531 2.800781 -0.78125 1.9375 -1.46875 C 1.070312 -2.164062 0.378906 -3.050781 -0.140625 -4.125 C -0.671875 -5.207031 -0.9375 -6.519531 -0.9375 -8.0625 C -0.9375 -10.550781 -0.253906 -12.523438 1.109375 -13.984375 C 2.484375 -15.453125 4.285156 -16.554688 6.515625 -17.296875 C 8.742188 -18.046875 11.257812 -18.515625 14.0625 -18.703125 C 16.875 -18.898438 19.695312 -19 22.53125 -19 C 22.625 -19.476562 22.742188 -20.160156 22.890625 -21.046875 C 23.035156 -21.929688 23.109375 -22.710938 23.109375 -23.390625 C 23.109375 -24.253906 22.878906 -25.054688 22.421875 -25.796875 C 21.960938 -26.546875 21.015625 -26.921875 19.578125 -26.921875 C 17.898438 -26.921875 16.664062 -26.425781 15.875 -25.4375 C 15.082031 -24.457031 14.566406 -23.269531 14.328125 -21.875 L 3.8125 -21.875 Z M 21.734375 -15.625 L 20.4375 -15.625 C 19.050781 -15.625 17.863281 -15.441406 16.875 -15.078125 C 15.894531 -14.710938 15.101562 -14.242188 14.5 -13.671875 C 13.90625 -13.097656 13.460938 -12.453125 13.171875 -11.734375 C 12.878906 -11.015625 12.734375 -10.296875 12.734375 -9.578125 C 12.734375 -8.421875 13.03125 -7.554688 13.625 -6.984375 C 14.226562 -6.410156 14.941406 -6.125 15.765625 -6.125 C 16.765625 -6.125 17.753906 -6.484375 18.734375 -7.203125 C 19.722656 -7.921875 20.335938 -8.878906 20.578125 -10.078125 Z M 21.734375 -15.625 "/></g></g></g><g fill="#ff3131" fill-opacity="1"><g transform="translate(90.559955, 255.211812)"><g><path d="M 5.828125 -30.953125 L 17.5625 -30.953125 L 18.640625 -25.546875 L 19.140625 -25.546875 C 20.242188 -27.273438 21.660156 -28.738281 23.390625 -29.9375 C 25.117188 -31.132812 27.398438 -31.734375 30.234375 -31.734375 C 30.421875 -31.734375 30.71875 -31.722656 31.125 -31.703125 C 31.53125 -31.679688 31.984375 -31.609375 32.484375 -31.484375 C 32.992188 -31.367188 33.523438 -31.203125 34.078125 -30.984375 C 34.628906 -30.765625 35.171875 -30.460938 35.703125 -30.078125 L 32.53125 -15.25 L 24.6875 -15.25 C 24.59375 -18.226562 24.328125 -20.304688 23.890625 -21.484375 C 23.460938 -22.660156 22.769531 -23.25 21.8125 -23.25 C 21.332031 -23.25 20.816406 -23.140625 20.265625 -22.921875 C 19.710938 -22.703125 19.144531 -22.234375 18.5625 -21.515625 L 13.96875 0 L -0.71875 0 Z M 5.828125 -30.953125 "/></g></g></g><g fill="#ffffff" fill-opacity="1"><g transform="translate(123.518919, 255.211812)"><g><path d="M 44.109375 -35.265625 C 44.109375 -33.867188 43.90625 -32.617188 43.5 -31.515625 C 43.09375 -30.410156 42.53125 -29.425781 41.8125 -28.5625 C 41.09375 -27.707031 40.253906 -26.941406 39.296875 -26.265625 C 38.335938 -25.597656 37.28125 -24.972656 36.125 -24.390625 C 36.65625 -24.203125 37.28125 -23.90625 38 -23.5 C 38.71875 -23.09375 39.410156 -22.53125 40.078125 -21.8125 C 40.753906 -21.09375 41.320312 -20.164062 41.78125 -19.03125 C 42.238281 -17.90625 42.46875 -16.523438 42.46875 -14.890625 C 42.46875 -12.734375 42.007812 -10.742188 41.09375 -8.921875 C 40.1875 -7.097656 38.832031 -5.523438 37.03125 -4.203125 C 35.226562 -2.890625 33.019531 -1.859375 30.40625 -1.109375 C 27.789062 -0.367188 24.78125 0 21.375 0 L 0 0 L 9.71875 -45.703125 L 28.640625 -45.703125 C 30.515625 -45.703125 32.375 -45.566406 34.21875 -45.296875 C 36.0625 -45.035156 37.710938 -44.519531 39.171875 -43.75 C 40.640625 -42.988281 41.828125 -41.921875 42.734375 -40.546875 C 43.648438 -39.179688 44.109375 -37.421875 44.109375 -35.265625 Z M 24.546875 -26.5625 C 25.597656 -26.5625 26.492188 -26.867188 27.234375 -27.484375 C 27.984375 -28.109375 28.597656 -28.890625 29.078125 -29.828125 C 29.554688 -30.765625 29.914062 -31.769531 30.15625 -32.84375 C 30.394531 -33.925781 30.515625 -34.898438 30.515625 -35.765625 C 30.515625 -37.160156 30.191406 -38.347656 29.546875 -39.328125 C 28.898438 -40.316406 27.878906 -40.8125 26.484375 -40.8125 L 24.328125 -40.8125 L 21.234375 -26.5625 Z M 19.359375 -4.53125 C 20.796875 -4.53125 21.992188 -4.9375 22.953125 -5.75 C 23.910156 -6.570312 24.703125 -7.582031 25.328125 -8.78125 C 25.953125 -9.976562 26.394531 -11.234375 26.65625 -12.546875 C 26.925781 -13.867188 27.0625 -15.035156 27.0625 -16.046875 C 27.0625 -17.722656 26.710938 -19.050781 26.015625 -20.03125 C 25.316406 -21.019531 24.203125 -21.515625 22.671875 -21.515625 L 20 -21.515625 L 16.484375 -4.53125 Z M 19.359375 -4.53125 "/></g></g></g><g fill="#ffffff" fill-opacity="1"><g transform="translate(166.481535, 255.211812)"><g><path d="M 44.84375 -34.828125 C 44.84375 -32.003906 44.050781 -29.390625 42.46875 -26.984375 C 40.882812 -24.585938 38.265625 -22.765625 34.609375 -21.515625 L 42.96875 0 L 26.921875 0 L 20.578125 -19.9375 L 19.796875 -19.9375 L 15.546875 0 L 0 0 L 9.71875 -45.703125 L 28.640625 -45.703125 C 30.847656 -45.703125 32.9375 -45.566406 34.90625 -45.296875 C 36.875 -45.035156 38.585938 -44.507812 40.046875 -43.71875 C 41.515625 -42.925781 42.679688 -41.820312 43.546875 -40.40625 C 44.410156 -38.988281 44.84375 -37.128906 44.84375 -34.828125 Z M 24.109375 -24.546875 C 25.359375 -24.546875 26.425781 -24.960938 27.3125 -25.796875 C 28.195312 -26.640625 28.914062 -27.660156 29.46875 -28.859375 C 30.019531 -30.054688 30.414062 -31.335938 30.65625 -32.703125 C 30.894531 -34.078125 31.015625 -35.265625 31.015625 -36.265625 C 31.015625 -37.515625 30.796875 -38.582031 30.359375 -39.46875 C 29.929688 -40.363281 29 -40.8125 27.5625 -40.8125 L 24.328125 -40.8125 L 20.734375 -24.546875 Z M 24.109375 -24.546875 "/></g></g></g><g fill="#ffffff" fill-opacity="1"><g transform="translate(210.23576, 255.211812)"><g><path d="M 9.71875 -45.703125 L 40.015625 -45.703125 L 38.859375 -40.234375 L 24.1875 -40.234375 L 21.15625 -26.34375 L 33.46875 -26.34375 L 32.3125 -20.9375 L 20 -20.9375 L 16.703125 -5.546875 L 31.375 -5.546875 L 30.296875 0 L 0 0 Z M 9.71875 -45.703125 "/></g></g></g><g fill="#ffffff" fill-opacity="1"><g transform="translate(244.634647, 255.211812)"><g><path d="M 9.71875 -45.703125 L 40.015625 -45.703125 L 38.859375 -40.234375 L 24.1875 -40.234375 L 21.15625 -26.34375 L 33.46875 -26.34375 L 32.3125 -20.9375 L 20 -20.9375 L 16.703125 -5.546875 L 31.375 -5.546875 L 30.296875 0 L 0 0 Z M 9.71875 -45.703125 "/></g></g></g><g fill="#ffffff" fill-opacity="1"><g transform="translate(279.033534, 255.211812)"><g><path d="M -0.21875 -6.546875 L 23.46875 -40.234375 L 5.328125 -40.234375 L 6.40625 -45.703125 L 41.953125 -45.703125 L 41.3125 -39.578125 L 17.84375 -5.46875 L 36.78125 -5.46875 L 35.765625 0 L -1.515625 0 Z M -0.21875 -6.546875 "/></g></g></g><g fill="#ffffff" fill-opacity="1"><g transform="translate(317.030615, 255.211812)"><g><path d="M 28 -17.265625 L 24.328125 0 L 8.703125 0 L 12.671875 -18.5 L 5.609375 -45.703125 L 22.890625 -45.703125 L 27.78125 -27.640625 L 38.578125 -45.703125 L 46.34375 -45.703125 Z M 28 -17.265625 "/></g></g></g></svg>